<svg version="1.1" id="Layer_1" xmlns="http://www.w3.org/2000/svg" xmlns:xlink="http://www.w3.org/1999/xlink" x="0px" y="0px"
	 width="100%" viewBox="0 0 496 496" enable-background="new 0 0 496 496" xml:space="preserve">
<path fill="#000000" opacity="1.000000" stroke="none" 
	d="
M497.000000,349.571533 
	C488.668091,348.141449 480.424957,350.197357 472.187103,350.783936 
	C431.998352,353.645569 392.556580,362.124542 352.633148,366.988983 
	C328.515045,369.927582 304.271637,371.516266 279.978485,372.354279 
	C253.998230,373.250519 228.026947,373.190094 202.050278,372.326233 
	C169.267914,371.235992 136.641464,368.594421 104.197075,363.572205 
	C76.115601,359.225403 48.088184,354.445282 19.808092,351.480042 
	C13.855099,350.855865 7.864513,350.590210 1.445625,350.079651 
	C1.000000,348.611115 1.000000,347.222198 1.000000,345.416656 
	C10.922592,347.295685 21.115662,347.325195 31.170916,348.492279 
	C50.822437,350.773132 70.331116,353.951996 89.855301,357.047668 
	C114.480194,360.952118 139.160690,364.234009 164.064087,365.897827 
	C193.139221,367.840363 222.235931,368.879761 251.361252,368.524384 
	C300.304382,367.927155 348.997894,364.486481 397.320160,356.089111 
	C426.451050,351.026764 455.723267,346.617218 485.371094,345.588837 
	C489.008575,345.462677 492.625366,344.741180 496.625885,344.147797 
	C497.000000,345.714355 497.000000,347.428711 497.000000,349.571533 
z"/>
<path fill="#000000" opacity="1.000000" stroke="none" 
	d="
M202.726562,247.989716 
	C202.134018,237.376740 201.654984,227.239670 200.920807,217.121124 
	C200.640381,213.256348 200.523117,210.186935 205.775009,210.058044 
	C210.617188,209.939224 210.049774,213.325684 210.208862,216.178452 
	C210.857300,227.806274 210.772507,227.433670 222.513184,226.156418 
	C237.180481,224.560791 251.820129,225.706100 266.119293,229.316177 
	C270.906097,230.524704 272.561981,229.254929 273.658875,224.781067 
	C276.786804,212.023163 280.254883,199.348343 283.620178,186.649048 
	C285.246429,180.512146 286.009003,180.072693 291.903473,181.569687 
	C300.437408,183.737061 300.426819,183.734207 298.119110,192.323853 
	C296.622467,197.894608 295.162262,203.475159 293.699921,208.997787 
	C301.417206,211.559357 301.662872,211.572952 301.231567,219.369476 
	C299.742645,246.285049 298.008667,273.186981 296.484070,300.100677 
	C295.570892,316.220215 294.894653,332.353088 294.069611,348.477783 
	C293.737549,354.967377 293.629547,355.014343 287.050140,355.030914 
	C263.892548,355.089233 240.734970,355.170532 217.577316,355.198944 
	C208.736816,355.209808 208.940216,355.751617 208.470093,346.642059 
	C206.780777,313.907654 204.682266,281.194305 202.726562,247.989716 
M211.401688,242.181152 
	C211.655502,244.327576 212.023880,246.467514 212.145905,248.621399 
	C213.894943,279.488983 215.664017,310.355743 217.262344,341.231232 
	C217.447372,344.805206 218.881317,345.775299 222.158356,345.726929 
	C230.977219,345.596710 239.799255,345.692566 248.619873,345.658051 
	C249.898071,345.653046 251.332535,345.964478 252.544434,344.241608 
	C252.226181,341.351044 250.647888,338.518677 249.119766,335.898895 
	C246.382568,331.206177 246.384018,326.670288 247.773651,321.582642 
	C253.639282,300.107910 259.273987,278.570038 264.971893,257.049622 
	C266.904907,249.748611 268.775421,242.431030 270.694153,235.045410 
	C263.163300,232.556091 256.094757,231.417648 249.022812,230.758514 
	C237.753479,229.708191 226.438004,229.536469 215.215378,231.582138 
	C212.653320,232.049179 210.937103,233.239944 211.287720,236.275024 
	C211.477661,237.919250 211.352539,239.599869 211.401688,242.181152 
M290.658966,246.507339 
	C290.365997,243.908539 291.936951,240.141266 287.731262,239.681702 
	C283.667145,239.237610 284.502655,243.303696 283.912659,245.480042 
	C275.251373,277.428894 266.750580,309.421326 258.245697,341.412415 
	C257.927734,342.608368 256.983459,343.889404 258.699524,345.685699 
	C265.148102,345.685699 272.120605,345.454529 279.068390,345.769318 
	C283.491821,345.969727 284.687256,344.260529 284.929321,340.038422 
	C286.700226,309.152435 288.712646,278.280304 290.658966,246.507339 
M262.533539,307.118866 
	C265.692719,295.394165 268.834656,283.664764 272.014526,271.945679 
	C279.328796,244.989487 286.650452,218.035248 294.006775,191.090515 
	C294.631470,188.802429 295.139069,186.986618 291.915466,186.181763 
	C288.944214,185.439911 287.748169,186.249207 287.083771,189.216492 
	C285.813477,194.889572 284.140076,200.471771 282.663086,206.099319 
	C272.446228,245.027344 262.274536,283.967346 251.973511,322.873047 
	C250.797394,327.315033 251.017670,331.075867 254.842834,334.896515 
	C257.431244,325.493469 259.853760,316.693176 262.533539,307.118866 
M291.443787,216.524155 
	C290.230804,221.315353 289.040619,226.112503 287.792480,230.894501 
	C287.359955,232.551575 286.749176,234.485519 288.964355,234.993530 
	C291.472717,235.568756 291.403168,233.120575 291.485504,231.693817 
	C291.822876,225.846375 291.616486,219.970032 292.300781,214.098587 
	C292.067627,214.701660 291.834442,215.304733 291.443787,216.524155 
z"/>
<path fill="#000000" opacity="1.000000" stroke="none" 
	d="
M355.443359,117.551636 
	C336.592255,129.909668 313.842773,126.063393 301.622803,108.710800 
	C289.325714,91.248680 293.216248,68.839943 310.915100,55.189217 
	C316.272095,51.057491 320.787537,49.365349 327.265808,48.693386 
	C334.514191,47.941544 341.583588,48.441158 348.237396,51.575657 
	C350.862732,52.812408 352.561646,52.284210 354.186005,50.040802 
	C355.940460,47.617653 358.004852,45.418571 359.753845,42.991852 
	C362.121063,39.707264 364.651642,39.517178 367.776825,41.949162 
	C370.728729,44.246323 371.922760,46.682457 369.242859,49.931641 
	C368.925903,50.315929 368.636780,50.727058 368.369476,51.147820 
	C366.601044,53.931828 362.958618,56.133202 363.104401,59.332928 
	C363.247559,62.475410 367.439758,63.535404 369.672241,65.708824 
	C371.528320,67.515846 372.686920,69.568031 370.996521,71.860085 
	C369.251099,74.226715 369.886383,76.511467 370.342010,78.959702 
	C373.273438,94.710838 368.033569,107.373718 355.443359,117.551636 
M327.335083,120.236000 
	C350.163300,123.298012 368.867493,105.447334 366.629333,82.696564 
	C366.457245,80.947021 366.666473,78.816139 364.532135,78.012283 
	C359.246857,76.021622 355.504608,71.853165 351.128357,68.604012 
	C344.763336,63.878281 344.860382,63.747585 348.341888,56.417404 
	C342.297791,53.347828 336.121429,51.904549 329.331238,53.240005 
	C331.134613,55.542210 333.040710,57.392048 335.191315,58.891182 
	C338.734711,61.361248 338.886536,64.084595 336.350067,67.314529 
	C332.341705,72.418793 328.328369,77.519859 324.385986,82.674934 
	C321.774445,86.089828 318.968170,85.932945 315.797089,83.512444 
	C312.562775,81.043655 312.699585,78.443062 314.983612,75.367508 
	C317.222076,72.353348 320.077087,69.717300 321.501312,66.004456 
	C320.309357,64.944733 319.360748,64.025566 318.335205,63.202206 
	C312.547760,58.555626 312.175018,58.599949 307.238586,64.300407 
	C290.020721,84.183144 300.585480,114.710022 327.335083,120.236000 
M367.255981,69.088562 
	C364.752014,66.936203 362.302338,64.716034 359.726410,62.653557 
	C357.767487,61.085114 357.558289,59.594166 359.177338,57.629681 
	C361.493652,54.819210 363.675201,51.896687 365.881866,48.997311 
	C366.830658,47.750702 367.637634,46.451904 365.820251,45.211044 
	C364.585724,44.368156 363.307709,44.099899 362.273712,45.372051 
	C357.834015,50.834286 353.151367,56.126057 349.307556,62.435440 
	C353.546326,65.811195 357.414429,68.899193 361.290863,71.976707 
	C364.566681,74.577377 366.685913,73.961868 367.255981,69.088562 
M320.064911,74.524551 
	C319.013489,76.458275 315.365479,78.098724 318.587250,80.639015 
	C321.505524,82.940033 322.517609,79.486946 323.837036,77.914742 
	C326.931213,74.227821 329.799744,70.352379 332.804108,66.588791 
	C334.013794,65.073418 335.206787,63.662109 333.046478,61.988255 
	C328.605499,58.547302 324.180603,55.085606 319.767822,51.647038 
	C316.034607,54.090721 315.153015,56.124134 318.914459,59.057446 
	C326.902130,65.286560 326.814789,65.398552 320.064911,74.524551 
z"/>
<path fill="#000000" opacity="1.000000" stroke="none" 
	d="
M325.178833,139.351013 
	C325.541443,145.222122 323.120117,149.030029 318.156982,151.174286 
	C313.832458,153.042633 309.900543,151.875046 306.689270,148.814758 
	C303.116333,145.409866 302.145569,141.090210 304.124847,136.486435 
	C305.987000,132.155167 309.342346,129.689835 314.224335,129.739517 
	C319.538147,129.793564 322.883453,132.642792 325.178833,139.351013 
M313.758362,147.171829 
	C319.185638,146.092026 321.714264,142.922607 320.191650,138.963348 
	C319.072632,136.053528 316.837646,134.317139 313.717102,134.601501 
	C310.887054,134.859390 308.775879,136.526306 308.286438,139.541321 
	C307.660187,143.398819 309.337280,145.896149 313.758362,147.171829 
z"/>
<path fill="#000000" opacity="1.000000" stroke="none" 
	d="
M272.888000,123.078613 
	C274.928314,119.169456 277.972656,117.923439 281.777435,118.708878 
	C284.805878,119.334053 286.724701,121.342033 287.230011,124.430916 
	C287.779510,127.790115 286.950012,130.721176 283.904968,132.628601 
	C281.253693,134.289322 278.449524,134.150864 275.940613,132.468216 
	C272.735107,130.318375 271.437927,127.280441 272.888000,123.078613 
M278.460205,128.846008 
	C280.925018,130.011673 282.179504,128.623779 282.936707,126.574631 
	C283.486206,125.087563 282.576721,124.085075 281.354919,123.364670 
	C280.055084,122.598251 278.861877,122.749413 277.806091,123.851028 
	C276.275726,125.447845 276.252625,127.000854 278.460205,128.846008 
z"/>
<path fill="#000000" opacity="1.000000" stroke="none" 
	d="
M234.245422,431.793030 
	C237.380539,434.158630 240.755325,432.254822 243.447647,432.162415 
	C246.577927,432.054993 249.377655,432.978516 252.301941,432.855865 
	C253.684967,439.413330 253.687637,439.249084 247.176712,439.104340 
	C244.130585,439.036621 241.208801,440.424347 237.966049,439.896057 
	C235.499664,439.494263 234.346756,438.688324 234.666626,435.916992 
	C233.540848,437.019379 234.403809,438.829437 232.687988,439.281097 
	C230.939072,439.136810 232.334351,436.792816 230.684570,436.322906 
	C230.322418,438.063812 230.022827,440.286896 227.627289,439.828735 
	C222.720032,438.890167 217.810974,439.588013 212.909821,439.397095 
	C211.556793,439.344360 209.774216,440.241669 209.560287,437.705078 
	C209.547714,437.555969 209.021896,439.537994 207.602814,439.207092 
	C206.205765,438.692230 207.040649,437.219482 206.438141,436.210449 
	C205.519135,436.955078 206.447586,438.814667 204.513336,439.117157 
	C203.727493,438.989563 203.666077,438.100922 203.679108,437.298065 
	C203.713028,435.203674 203.101868,432.580200 205.961914,431.939392 
	C208.581024,431.352539 211.435944,431.154938 212.332016,435.042450 
	C212.973846,433.107422 213.888763,430.853363 215.946442,431.779266 
	C219.939545,433.576019 225.891800,428.932404 228.651581,435.701508 
	C228.313675,431.616272 230.987839,431.530029 234.245422,431.793030 
z"/>
<path fill="#000000" opacity="1.000000" stroke="none" 
	d="
M220.992676,398.917542 
	C225.966858,397.104767 230.726593,398.660431 235.443161,398.121246 
	C237.949371,397.834778 239.969803,400.419922 240.124908,403.149536 
	C240.388794,407.794006 240.254684,412.463135 240.216339,417.121338 
	C240.206543,418.313232 239.904083,419.586060 238.288162,419.405487 
	C237.074554,419.269897 236.776123,418.204163 236.760269,417.167145 
	C236.701736,413.340057 236.711563,409.511963 236.661270,405.684692 
	C236.635757,403.743958 236.243301,401.746063 233.919250,401.630615 
	C231.351852,401.503113 231.256561,403.655182 231.235855,405.531799 
	C231.195511,409.192841 231.253113,412.855042 231.206131,416.515900 
	C231.189087,417.844360 231.125992,419.508759 229.383011,419.549194 
	C227.204468,419.599701 227.407486,417.732056 227.422287,416.253723 
	C227.452255,413.259369 227.597565,410.265472 227.591553,407.271637 
	C227.586990,404.998047 228.086792,401.898407 224.916397,401.727631 
	C221.397690,401.538055 222.234894,404.841583 222.117249,406.983582 
	C221.962326,409.804169 222.145462,412.641602 222.076569,415.469238 
	C222.037674,417.066193 222.277374,418.906708 220.110504,419.505981 
	C217.239243,416.248505 217.588409,403.606781 220.992676,398.917542 
z"/>
<path fill="#000000" opacity="1.000000" stroke="none" 
	d="
M292.955322,433.179199 
	C294.900055,432.247070 296.749695,431.563812 298.357727,432.827484 
	C299.826477,433.981689 299.093597,435.924530 299.112030,437.536407 
	C299.135956,439.636475 297.686859,439.778046 296.045349,439.799042 
	C288.383545,439.896912 280.719238,439.962677 273.062866,440.237122 
	C270.051331,440.345062 268.857208,439.218048 268.787567,436.243164 
	C268.722107,433.447083 269.467743,431.390900 272.586121,431.884918 
	C275.199036,432.298859 279.130493,431.473053 278.269531,437.358459 
	C280.901093,431.424713 284.269348,430.663330 292.955322,433.179199 
z"/>
<path fill="#000000" opacity="1.000000" stroke="none" 
	d="
M268.145966,400.865540 
	C269.772034,397.271942 270.966248,398.050690 271.890839,400.824097 
	C272.549591,402.800201 271.382904,405.124817 272.954865,407.040741 
	C275.607849,406.620483 275.926117,404.090820 277.284515,402.572876 
	C278.339935,401.393494 279.306152,399.212372 281.152435,400.376587 
	C283.235504,401.690186 281.240021,403.230316 280.549225,404.601837 
	C280.251709,405.192535 279.972046,405.792236 279.553680,406.658112 
	C282.879791,410.325134 286.018219,414.233154 283.012299,419.708191 
	C280.069763,418.906616 280.777496,416.929016 280.528931,415.419434 
	C280.097229,412.797577 278.808899,411.085327 275.962555,411.142548 
	C273.248199,411.197083 272.319366,412.887360 272.136536,415.392303 
	C272.013550,417.077942 272.391846,419.677307 269.685455,419.356079 
	C267.674042,419.117432 267.930664,416.841705 267.934570,415.213806 
	C267.945679,410.565826 268.020111,405.918030 268.145966,400.865540 
z"/>
<path fill="#000000" opacity="1.000000" stroke="none" 
	d="
M255.197281,398.447937 
	C258.819183,401.233612 256.934326,404.936890 257.130859,408.198547 
	C257.400360,412.671783 256.833405,417.294342 263.629120,416.514252 
	C264.556549,416.407806 265.207764,417.079987 265.241821,418.020477 
	C265.283783,419.177948 264.518372,419.867035 263.467316,420.076233 
	C260.172455,420.732086 257.183441,420.284668 255.020447,417.376526 
	C252.754684,414.330261 252.624634,401.902008 255.197281,398.447937 
z"/>
<path fill="#000000" opacity="1.000000" stroke="none" 
	d="
M249.321594,419.901917 
	C243.490280,417.595032 241.845215,409.835907 246.678177,404.127350 
	C247.764206,409.841034 248.706375,414.797882 249.321594,419.901917 
z"/>
<path fill="#000000" opacity="1.000000" stroke="none" 
	d="
M256.734558,437.328766 
	C256.905487,434.377533 257.212128,431.264771 260.690643,432.098175 
	C264.386353,432.983612 263.434326,436.353394 263.219299,440.715729 
	C261.340240,436.691223 258.064880,441.453918 256.734558,437.328766 
z"/>
<path fill="#000000" opacity="1.000000" stroke="none" 
	d="
M267.202148,438.386414 
	C265.763458,440.087891 265.079498,439.275787 264.834778,437.911194 
	C264.522888,436.171631 264.425171,434.393707 264.236023,432.640472 
	C267.721313,432.038025 267.721313,432.038025 267.202148,438.386414 
z"/>
</svg>